<svg width="450" height="617" viewBox="0 0 450 617" fill="none" xmlns="http://www.w3.org/2000/svg">
<path d="M295.565 524L292 542.53L294.946 543.097L298.511 524.567L295.565 524Z" fill="#92A2AF"/>
<path d="M200.42 545.94L198.05 543.35L143.44 483.5C138.149 477.701 129.159 477.289 123.36 482.58L78.7756 523.259C70.6154 530.704 70.0361 543.355 77.4817 551.515L130.699 609.836C138.144 617.996 150.794 618.574 158.954 611.129L199.266 574.344C207.425 566.897 207.868 554.098 200.42 545.94ZM187.12 581.38L183.61 584.57L181.01 586.95L159.144 606.9C150.985 614.345 138.335 613.765 130.89 605.606L81.7173 551.711C74.2735 543.553 74.8516 530.905 83.0085 523.46L121.78 488.07C128.341 482.083 138.513 482.549 144.5 489.11L199.44 549.32C205.161 555.588 204.717 565.307 198.447 571.027L191.34 577.51L187.12 581.38Z" fill="#92A2AF"/>
<path d="M190.71 408.331C180.091 405.27 169.002 411.403 165.95 422.025L160.578 440.718L158.998 446.258L138.998 515.718C138.766 516.512 139.224 517.344 140.019 517.572L222.468 541.258L225.858 542.258C227.874 542.838 229.978 541.674 230.558 539.658L231.218 537.368L240.898 503.668L241.898 500.278L261.978 430.428C262.204 429.632 261.744 428.802 260.949 428.573L190.71 408.331ZM239.478 497.608L238.478 500.988L228.528 535.638L228.098 537.128C227.717 538.448 226.338 539.209 225.018 538.828L161.603 520.586C150.99 517.533 144.86 506.455 147.911 495.841L168.064 425.723C171.114 415.106 182.195 408.972 192.812 412.024L239.467 425.437C250.09 428.491 256.222 439.583 253.157 450.203L239.478 497.608Z" fill="#92A2AF"/>
<path d="M207.848 226.738L205.388 228.968C205.483 229.256 205.579 229.551 205.677 229.849C206.014 230.884 207.311 231.235 208.116 230.501C208.533 230.119 208.699 229.534 208.536 228.992C208.311 228.246 208.077 227.497 207.848 226.738ZM279.388 295.158L277.588 293.158L277.018 292.538L274.401 289.669C274.21 289.46 273.959 289.312 273.683 289.245C272.282 288.9 271.21 290.625 272.182 291.691L278.418 298.528C284.133 304.79 283.689 314.501 277.426 320.216L270.288 326.728L266.048 330.588L259.958 336.158L238.092 356.108C229.932 363.553 217.282 362.973 209.837 354.813L160.667 300.922C153.222 292.762 153.802 280.113 161.961 272.668L199.868 238.078L200.718 237.298L206.438 232.078C207.899 230.744 208.42 228.632 207.848 226.738L205.388 228.968L204.798 229.518L202.288 231.808L198.058 235.658L175.388 256.358L157.746 272.438C149.575 279.881 148.99 292.54 156.44 300.705L209.661 359.029C217.101 367.183 229.739 367.768 237.9 360.336L263.388 337.128L278.242 323.572C286.406 316.121 286.845 303.315 279.388 295.158Z" fill="#92A2AF"/>
<path d="M279.012 290.411C278.252 290.275 277.513 290.729 277.3 291.471L276.988 292.558L276.848 293.048L276.008 295.938L266.008 330.588L265.579 332.085C265.203 333.4 263.831 334.159 262.518 333.778L199.01 315.533C188.39 312.482 182.256 301.397 185.313 290.778L200.978 236.358C201.355 235.047 199.775 234.064 198.766 234.983L198.382 235.331C198.177 235.519 198.027 235.759 197.95 236.027L196.488 241.118L195.838 243.358L176.518 310.578C176.291 311.374 176.751 312.203 177.547 312.431L259.958 336.118L263.338 337.118C265.359 337.698 267.468 336.53 268.049 334.508L278.388 298.538L279.388 295.148L279.838 293.588L280.21 292.302C280.458 291.446 279.89 290.567 279.012 290.411Z" fill="#92A2AF"/>
<path d="M197.939 235.576C197.89 235.649 197.987 235.732 198.052 235.672C198.062 235.663 198.07 235.651 198.073 235.637C198.097 235.555 197.986 235.504 197.939 235.576ZM436.725 145.436C436.739 145.431 436.749 145.419 436.752 145.404C437.414 141.685 437.747 137.915 437.748 134.138C437.74 124.688 435.626 115.359 431.559 106.83C427.493 98.3 421.575 90.7842 414.238 84.8293C406.901 78.8744 398.329 74.6301 389.145 72.4052C380.609 70.3375 371.745 70.0624 363.111 71.5888C362.096 71.7683 361.148 70.999 361.148 69.9679C361.142 55.854 356.731 42.0938 348.532 30.6062C340.332 19.1186 328.752 10.4763 315.406 5.88453C302.06 1.29274 287.613 0.980397 274.081 4.99105C264.878 7.71861 256.411 12.3531 249.201 18.5378C244.112 22.9038 235.987 22.7054 231.102 18.1127C224.326 11.743 216.256 6.82484 207.382 3.72772C194.245 -0.857456 180.003 -1.22194 166.648 2.68525C153.294 6.59244 141.495 14.5759 132.901 25.5191C126.028 34.2707 121.48 44.5653 119.611 55.4474C118.795 60.2009 115.22 64.1131 110.571 65.3985C102.706 67.5733 95.3312 71.2639 88.8672 76.2698C85.9942 78.4947 82.2545 79.3352 78.7086 78.5409C70.9942 76.8128 63.0109 76.512 55.1571 77.6715C45.3572 79.1182 36.0214 82.7996 27.8717 88.4311C19.722 94.0626 12.9768 101.493 8.15776 110.148C3.33877 118.803 0.575123 128.45 0.0805543 138.344C-0.414015 148.238 1.37376 158.113 5.30559 167.205C9.23743 176.298 15.208 184.364 22.7555 190.78C30.3029 197.196 39.2251 201.79 48.8318 204.207C54.6881 205.68 60.703 206.321 66.701 206.124C72.7928 205.925 78.4757 210.205 79.9255 216.125C81.4713 222.437 83.9336 228.51 87.2511 234.146C92.5306 243.114 99.8301 250.727 108.569 256.378C117.308 262.029 127.245 265.563 137.589 266.698C147.934 267.833 158.401 266.539 168.158 262.918C178.916 258.933 188.444 252.203 195.798 243.398C197.232 241.703 198.568 239.927 199.798 238.078C200.188 237.528 200.548 236.968 200.908 236.398C201.712 235.138 202.472 233.852 203.188 232.541C203.535 231.905 202.763 231.319 202.228 231.808L198.13 235.538C198.092 235.572 198.033 235.535 198.047 235.486C198.063 235.43 197.987 235.396 197.955 235.444L197.538 236.078C191.894 244.522 184.295 251.479 175.388 256.358C165.849 261.539 155.148 264.204 144.294 264.102C133.44 264 122.791 261.134 113.352 255.774C103.913 250.414 95.9959 242.737 90.3472 233.468C84.6985 224.199 81.5048 213.644 81.0676 202.798C81.0369 201.849 80.1379 201.167 79.2176 201.398C69.9317 203.679 60.2421 203.767 50.9163 201.655C41.5904 199.543 32.8845 195.288 25.4881 189.228C18.0916 183.168 12.2078 175.468 8.30263 166.74C4.39747 158.012 2.57824 148.494 2.98903 138.941C3.39982 129.388 6.02934 120.061 10.6693 111.7C15.3093 103.339 21.8323 96.1738 29.7217 90.7709C37.611 85.3679 46.6501 81.8762 56.1228 80.5722C65.5956 79.2681 75.2419 80.1876 84.2977 83.2579L84.3064 83.2608C84.8298 83.4373 85.408 83.3091 85.8077 82.9279C95.229 73.8226 107.376 68.0581 120.388 66.5179C121.123 66.4324 121.678 65.8082 121.678 65.0679C122.558 30.8379 151.138 2.98787 185.398 2.98787C195.948 2.97941 206.334 5.5943 215.623 10.5972C224.911 15.6001 232.81 22.834 238.608 31.6479C239.185 32.5214 240.457 32.5513 241.078 31.7079C249.14 20.6699 260.486 12.4645 273.494 8.26543C286.502 4.0664 300.505 4.0889 313.499 8.32972C326.493 12.5705 337.814 20.8124 345.84 31.8762C353.867 42.9401 358.189 56.2591 358.188 69.9279C358.188 71.2179 358.188 72.5179 358.068 73.7779C358.003 74.7709 358.919 75.5424 359.887 75.3101L359.938 75.2979C369.79 72.9045 380.086 73.0239 389.88 75.6451C399.674 78.2664 408.653 83.3054 415.993 90.2999C423.333 97.2945 428.799 106.02 431.889 115.677C434.979 125.334 435.594 135.612 433.678 145.568C433.59 146.031 433.727 146.512 434.048 146.858C441.066 154.55 445.374 164.328 446.314 174.698C447.255 185.068 444.777 195.461 439.257 204.29C433.738 213.12 425.482 219.901 415.748 223.598C406.014 227.296 395.337 227.706 385.348 224.768C384.547 224.536 383.71 224.997 383.478 225.798C377.237 247.311 363.329 265.792 344.385 277.746C325.44 289.699 302.772 294.296 280.668 290.668C279.668 290.498 278.668 290.328 277.668 290.128C276.458 289.888 275.258 289.628 274.068 289.338C272.238 288.898 270.438 288.398 268.648 287.848C254.801 283.6 242.16 276.128 231.763 266.046C221.365 255.963 213.508 243.557 208.838 229.848C208.738 229.563 208.64 229.271 208.543 228.976C208.202 227.932 206.899 227.574 206.092 228.318C205.663 228.714 205.505 229.323 205.686 229.878C205.923 230.606 206.163 231.354 206.388 232.078C211.603 246.737 220.356 259.882 231.869 270.349C243.382 280.815 257.299 288.279 272.388 292.078C273.602 292.391 274.826 292.676 276.059 292.934C276.53 293.032 277 293.148 277.478 293.208C278.228 293.368 278.978 293.498 279.728 293.628C302.352 297.432 325.588 292.884 345.109 280.831C361.895 270.466 374.949 255.16 382.559 237.13C384.645 232.187 389.947 229.296 395.3 229.661C402.86 230.175 410.481 228.99 417.59 226.142C427.689 222.096 436.218 214.909 441.918 205.642C447.617 196.375 450.183 185.52 449.238 174.682C448.294 163.865 443.902 153.637 436.708 145.504C436.689 145.482 436.697 145.447 436.725 145.436Z" fill="#92A2AF"/>
<path d="M256.739 90.9248C251.895 85.7459 243.641 85.8739 238.96 91.2003L209.878 124.294C205.102 129.729 208.962 138.258 216.197 138.258C220.842 138.258 224.608 142.024 224.608 146.669V177.258C224.608 183.885 229.98 189.258 236.608 189.258H259.388C266.015 189.258 271.388 183.885 271.388 177.258V147.221C271.388 142.271 275.401 138.258 280.351 138.258C288.193 138.258 292.255 128.899 286.898 123.171L256.739 90.9248ZM276.179 135.258C271.876 135.258 268.388 138.746 268.388 143.049V174.258C268.388 180.885 263.015 186.258 256.388 186.258H239.628C233 186.258 227.628 180.885 227.628 174.258V142.548C227.628 138.522 224.364 135.258 220.337 135.258C214.069 135.258 210.723 127.87 214.859 123.158L239.029 95.6228C243.71 90.291 251.969 90.1616 256.814 95.3441L281.87 122.146C286.524 127.125 282.994 135.258 276.179 135.258Z" fill="#92A2AF"/>
<path d="M133.308 301.942L115.508 416.001L118.472 416.464L136.272 302.404L133.308 301.942Z" fill="#92A2AF"/>
<path d="M292.336 363.256L285.922 398.904L288.874 399.435L295.288 363.788L292.336 363.256Z" fill="#92A2AF"/>
<path d="M320.821 309.772L302.272 419.556L305.23 420.056L323.779 310.272L320.821 309.772Z" fill="#92A2AF"/>
</svg>
